# xmcd
#
# Track frame offsets:
#	182
#	15845
#	39445
#	61300
#
# Disc length: 1132 seconds
#
# Revision: 0
# Processed by: cddbd v1.5.1PL2 Copyright (c) Steve Scherf et al.
# Submitted via: audiograbber 1.83.01
#
DISCID=22046a04
DTITLE=Smiles and More - Smiles and More
DYEAR=1999
DGENRE=Eurodance
TTITLE0=Jet Set Life (Radio Edit)
TTITLE1=Jet Set Life (Extended Version)
TTITLE2=Jet Set Life (Original Mix)
TTITLE3=Jet Set Life (First Class Clubmix)
EXTD=
EXTT0=
EXTT1=
EXTT2=
EXTT3=
PLAYORDER=
